<?xml version="1.0" standalone="no"?>
<!DOCTYPE svg PUBLIC "-//W3C//DTD SVG 20010904//EN"
 "http://www.w3.org/TR/2001/REC-SVG-20010904/DTD/svg10.dtd">
<svg version="1.0" xmlns="http://www.w3.org/2000/svg"
 width="512.000000pt" height="512.000000pt" viewBox="0 0 512.000000 512.000000"
 preserveAspectRatio="xMidYMid meet">
<metadata>
Created by potrace 1.11, written by Peter Selinger 2001-2013
</metadata>
<g transform="translate(0.000000,512.000000) scale(0.100000,-0.100000)"
fill="#000000" stroke="none">
<path d="M1589 5100 c-60 -32 -73 -61 -77 -177 l-4 -103 -390 0 c-441 0 -442
0 -486 -78 l-22 -40 0 -2051 0 -2051 -245 0 c-227 0 -249 -2 -285 -20 -65 -33
-81 -78 -79 -213 1 -108 17 -192 42 -225 41 -53 102 -102 149 -120 53 -21 66
-21 1694 -21 1606 -1 1643 -1 1705 19 149 45 258 151 308 297 20 57 20 84 21
2223 0 2090 -1 2166 -18 2200 -11 19 -31 44 -46 55 -26 19 -43 20 -436 23
l-408 3 -4 104 c-3 117 -16 146 -79 177 -31 17 -84 18 -669 18 -604 -1 -637
-2 -671 -20z"/>
<path d="M4562 4495 c-81 -19 -141 -54 -207 -120 -58 -58 -106 -136 -122 -200
-4 -16 -9 -661 -10 -1433 l-3 -1403 126 -382 c69 -210 140 -425 157 -477 38
-117 50 -136 98 -161 69 -35 146 -19 187 38 11 16 90 242 176 503 l156 476 0
1396 c0 1359 -1 1398 -20 1459 -71 231 -302 362 -538 304z"/>
</g>
</svg>
